PathFileType	4	(X/Y/Z)	S01_0003_Gait_markers.trc
DataRate	CameraRate	NumFrames	NumMarkers	Units	OrigDataRate	OrigDataStartFrame	OrigNumFrames
250.000000	250.000000	4	54	mm	250.000000	117	314
Frame#	Time	HEAD_ANT			R_HEAD			L_HEAD			C7			R_BACK			L_BACK			STERNUM			R_ACROMION			R_HUM_PROX			R_HUM_ANT			R_HUM_POST			R_ELBOW_LAT			R_ELBOW_MED			R_FOREARM			R_WIRST_LAT			R_WRITS_MED			R_HAND			L_ACROMION			L_HUM_PROX			L_HUM_ANT			L_HUM_POST			L_ELBOW_LAT			L_ELBOW_MED			L_FOREARM			L_WRIST_LAT			L_WIRST_MED			L_HAND			R_ILIAC			SACRUM			L_ILIAC			R_GTROCH			R_THIGH__1			R_THIGH_2			R_THIGH_3			R_THIGH_4			R_SHANK_1			R_SHANK_2			R_SHANK_3			R_SHANK_4			R_HEEL			R_FOOT_LAT			R_FOOT_MED			L_GTROCH			L_THIGH_1			L_THIGH_2			L_THIGH_3			L_THIGH_4			L_SHANK_1			L_SHANK_2			L_SHANK_3			L_SHANK_4			L_HEEL			L_FOOT_LAT			L_FOOT_MED			
		X1	Y1	Z1	X2	Y2	Z2	X3	Y3	Z3	X4	Y4	Z4	X5	Y5	Z5	X6	Y6	Z6	X7	Y7	Z7	X8	Y8	Z8	X9	Y9	Z9	X10	Y10	Z10	X11	Y11	Z11	X12	Y12	Z12	X13	Y13	Z13	X14	Y14	Z14	X15	Y15	Z15	X16	Y16	Z16	X17	Y17	Z17	X18	Y18	Z18	X19	Y19	Z19	X20	Y20	Z20	X21	Y21	Z21	X22	Y22	Z22	X23	Y23	Z23	X24	Y24	Z24	X25	Y25	Z25	X26	Y26	Z26	X27	Y27	Z27	X28	Y28	Z28	X29	Y29	Z29	X30	Y30	Z30	X31	Y31	Z31	X32	Y32	Z32	X33	Y33	Z33	X34	Y34	Z34	X35	Y35	Z35	X36	Y36	Z36	X37	Y37	Z37	X38	Y38	Z38	X39	Y39	Z39	X40	Y40	Z40	X41	Y41	Z41	X42	Y42	Z42	X43	Y43	Z43	X44	Y44	Z44	X45	Y45	Z45	X46	Y46	Z46	X47	Y47	Z47	X48	Y48	Z48	X49	Y49	Z49	X50	Y50	Z50	X51	Y51	Z51	X52	Y52	Z52	X53	Y53	Z53	X54	Y54	Z54	

118	0.468	861.62939453125	1736.460205078125	-295.7103271484371	802.3384399414062	1688.334838867188	-217.6125946044918	800.7619018554688	1690.07763671875	-365.0612792968746	658.396484375	1523.52490234375	-287.3453979492184	586.2966918945312	1329.764038085938	-213.1081848144528	579.2088012695312	1330.331665039062	-357.1303405761716	831.639404296875	1357.038696289062	-297.1521301269528	746.257080078125	1471.4404296875	-120.042556762695	737.10986328125	1312.70703125	-22.36069297790498	807.9519653320312	1234.23291015625	-32.38922500610324	691.8842163085938	1223.4541015625	3.772777557373319	751.2326049804688	1123.391357421875	0.7711460590365043	709.0686645507812	1114.416625976562	-71.71136474609351	884.56494140625	964.3626098632812	-30.19892501831033	925.20556640625	908.0363159179688	-81.97954559326152	875.3954467773438	870.8845825195312	-27.98252105712871	961.5999145507812	823.6065063476562	-33.53120422363263	730.1483764648438	1477.909423828125	-460.088226318359	691.7371215820312	1312.819702148438	-555.6401367187497	747.9780883789062	1227.801879882813	-560.0859374999998	625.1361083984375	1239.676879882813	-577.0180664062498	675.667236328125	1131.173828125	-587.2091674804685	627.822509765625	1131.645751953125	-527.188293457031	767.4907836914062	950.0879516601564	-586.8063354492185	805.0400390625	887.7088623046876	-539.964904785156	747.7059326171875	868.3023071289064	-593.4996948242185	823.3972778320312	811.0077514648439	-594.5056152343748	718.51416015625	1073.204467773438	-121.3784027099607	592.93408203125	1045.481689453125	-293.3947448730466	710.3433837890625	1068.480224609375	-464.8147888183591	661.581298828125	935.9640502929688	-112.3036499023435	631.2523803710938	664.5938110351562	-130.704391479492	689.9588012695312	667.4077758789062	-125.7009124755858	670.7877197265625	566.9432983398438	-161.322296142578	609.215087890625	587.3184204101562	-152.4657135009764	535.0726928710938	363.2417297363282	-153.8271942138671	584.24462890625	331.9071350097657	-170.6212768554687	561.8411865234375	251.1328277587891	-190.8034973144531	501.2232360839844	270.0232238769532	-179.2840118408203	415.8094177246094	78.84336090087896	-267.1899108886719	568.9701538085938	19.70661354064945	-180.9295501708984	629.1124877929688	28.81451034545905	-280.9213256835938	691.0486450195312	952.6399536132814	-475.121887207031	871.2103881835938	700.9061889648439	-468.9408264160155	814.6399536132812	700.2323608398439	-486.2446289062498	836.2852172851562	598.7940063476564	-456.1026000976561	895.4107055664062	623.3265991210939	-445.9513854980468	904.55908203125	347.7991333007814	-449.6052246093749	850.31494140625	320.2487792968751	-445.7928466796874	859.2930908203125	234.1573638916016	-429.4826049804687	921.6384887695312	248.1180572509766	-429.5923461914062	853.2220458984375	41.96084976196297	-354.4059753417969	1020.501220703125	42.28853225708018	-443.6211547851562	1063.264770507812	60.71941757202156	-355.4333801269531	
119	0.472	867.1084594726562	1735.579956054688	-296.2739257812496	807.9111938476562	1687.405639648438	-217.9625396728512	806.1342163085938	1689.10986328125	-365.5372924804684	663.8726196289062	1522.626220703125	-287.6566772460934	591.6364135742188	1329.08349609375	-213.2091674804685	584.5729370117188	1329.53515625	-357.3146057128903	837.0869750976562	1355.858154296875	-297.5738830566403	752.0624389648438	1470.471801757812	-120.2757415771481	743.0415649414062	1311.735961914062	-22.8653964996335	814.1077880859375	1233.5068359375	-32.73244476318332	697.8187866210938	1222.383666992188	3.489293575287137	757.693359375	1122.520874023438	0.4842602014544118	715.4121704101562	1113.276123046875	-71.81815338134741	891.3656616210938	963.7467651367188	-30.66567993164041	932.13134765625	907.6343383789062	-82.54572296142558	882.458740234375	870.3402709960938	-28.56055831909161	968.7479858398438	823.3427734375	-34.10384750366192	735.5402221679688	1476.945190429688	-460.3166809082028	696.591552734375	1311.912719726563	-555.8452148437497	752.567626953125	1226.85107421875	-560.5040893554685	629.8554077148438	1238.900268554688	-576.940979003906	680.4480590820312	1130.379272460938	-587.4207763671873	632.5254516601562	1130.732543945313	-527.4482421874998	772.0698852539062	949.0642700195314	-587.289367675781	809.31640625	886.7648925781251	-540.3905029296873	751.9605102539062	867.2857666015626	-594.0907592773435	827.4950561523438	810.0228881835939	-595.079406738281	723.9361572265625	1072.133666992188	-121.5121231079099	598.2440795898438	1044.360717773438	-293.7386169433591	715.6051025390625	1067.56982421875	-465.001281738281	666.7285766601562	935.5231323242188	-112.4752044677732	634.8702392578125	664.6940307617188	-130.8801269531249	693.4318237304688	666.9669189453125	-126.0831451416014	674.049560546875	566.8854370117188	-161.0860290527343	612.6103515625	587.461181640625	-152.3793029785155	537.0269775390625	363.6858520507813	-153.8781127929687	585.9696655273438	331.9714050292969	-170.7344512939452	563.0443725585938	251.3966217041016	-190.8652038574218	502.6260681152344	270.6876831054688	-179.1555480957031	416.0867004394531	79.77743530273443	-267.49072265625	568.8516845703125	19.75740051269535	-181.027099609375	629.170654296875	28.77465057373053	-280.9124145507812	696.3490600585938	951.6654663085939	-475.616516113281	875.86767578125	699.3626708984376	-469.0077209472655	818.9868774414062	698.7012939453126	-486.3464050292967	840.2025146484375	597.2810058593751	-455.5465698242186	899.681396484375	621.3029785156251	-445.690216064453	913.5184936523438	347.5464172363282	-449.1024475097656	859.8275146484375	318.6126403808595	-445.2595825195312	870.6657104492188	232.8594055175782	-429.2303771972656	932.7015380859375	247.9966735839845	-429.3377990722656	869.0938720703125	40.52331924438484	-354.3224182128906	1036.578735351562	44.04391479492197	-443.1344909667969	1079.002807617188	63.7222213745118	-355.10693359375	
120	0.476	872.5009765625	1734.701293945312	-296.6581420898434	813.3875122070312	1686.565307617188	-218.4317779541012	811.648681640625	1687.996215820312	-365.896331787109	669.4217529296875	1521.632080078125	-287.9017333984372	597.0957641601562	1328.218505859375	-213.2068939208982	589.9901733398438	1328.681030273438	-357.5018310546872	842.5228271484375	1354.872192382812	-298.2738342285153	757.7200317382812	1469.416748046875	-120.5930175781247	749.11376953125	1310.895263671875	-22.97923851013154	820.2368774414062	1232.691650390625	-33.19461059570285	704.1450805664062	1221.373046875	3.317094087600979	764.3643188476562	1121.637329101562	0.1756454557182895	721.6983032226562	1112.26513671875	-72.06115722656226	898.1400756835938	963.2752685546875	-31.10362625122049	939.0369262695312	907.2777709960938	-83.01746368408183	889.4603881835938	869.796875	-29.06617164611797	975.844970703125	823.0598754882812	-34.79835510253888	740.858642578125	1476.002685546875	-460.7752075195309	701.7488403320312	1311.093994140625	-556.1738281249997	757.6200561523438	1225.825561523438	-561.148254394531	634.8007202148438	1237.895385742188	-576.0375366210935	684.9243774414062	1129.511108398438	-587.773742675781	637.3423461914062	1129.739379882813	-527.4415893554685	776.3925170898438	947.8918457031251	-587.253723144531	813.737060546875	885.5706176757814	-540.9388427734373	756.3724975585938	866.2662963867189	-594.4653320312498	831.798828125	808.7983398437501	-595.6923217773435	729.492919921875	1070.937255859375	-121.7840347290037	603.7067260742188	1043.299438476562	-294.2554626464841	720.7444458007812	1066.719482421875	-465.3120117187498	671.8163452148438	935.1279296875	-112.7006683349607	638.5447998046875	664.6842041015625	-130.9763336181639	697.3043212890625	666.7163696289062	-125.9655380249022	677.0791015625	566.4044799804688	-161.4334411621093	615.96337890625	587.4883422851562	-152.5947418212889	539.0825805664062	364.1680908203126	-154.0330505371093	587.8191528320312	332.1190185546876	-170.7243347167968	564.4033203125	251.5524291992188	-190.9702758789062	504.0701293945312	271.2872619628907	-179.3341522216796	416.4040222167969	80.82745361328131	-267.4012756347656	568.7716064453125	19.7813873291016	-181.1566619873047	629.1580200195312	28.74126434326178	-280.9288940429688	702.0629272460938	950.4873046875001	-475.7834777832029	880.3607177734375	697.5951538085939	-468.8118896484373	823.3908081054688	696.7633056640626	-485.9360961914061	844.5816650390625	595.6187744140626	-455.1918640136718	903.9155883789062	620.0373535156251	-445.3732299804686	922.4112548828125	347.3281555175782	-448.6476440429687	869.3103637695312	317.2552795410157	-444.7731018066406	882.1672973632812	231.5946044921876	-428.6433410644531	943.8076171875	248.3080291748048	-428.9544067382812	884.3638305664062	39.48770904541023	-354.0948486328125	1052.077880859375	46.23136138916026	-443.0230102539062	1094.227294921875	66.63236999511727	-354.80810546875	
121	0.48	878.048095703125	1733.836547851562	-297.1130371093746	818.7720336914062	1685.580932617188	-218.7744903564449	817.0574340820312	1687.007568359375	-366.2977600097652	674.8289184570312	1520.733276367188	-288.155853271484	602.5299072265625	1327.33203125	-213.4558258056638	595.3847045898438	1327.807983398438	-357.7611083984372	847.9534301757812	1353.868530273438	-298.5604858398435	763.4033813476562	1468.410034179688	-120.99787902832	755.2307739257812	1309.935791015625	-23.38552856445283	826.3946533203125	1231.840209960938	-33.60935974121067	710.3944702148438	1220.34814453125	3.049761533737454	771.1925659179688	1120.59765625	-0.15949845314001	727.9111938476562	1111.29296875	-72.28240966796851	904.7976684570312	962.6392211914062	-31.70219993591287	945.851806640625	906.8206176757812	-83.49610900878886	896.4407958984375	869.1964721679688	-29.6826400756834	982.8353271484375	822.517822265625	-35.22919845581036	746.1631469726562	1475.051879882812	-461.1317749023434	706.7031860351562	1310.078857421875	-556.4770507812497	762.3347778320312	1224.829345703125	-561.2120971679685	639.5941162109375	1237.237670898438	-577.303771972656	686.923583984375	1129.603759765625	-588.960266113281	642.2110595703125	1128.757934570313	-527.391174316406	780.8510131835938	946.8411254882814	-587.526672363281	818.2608032226562	884.4149169921876	-541.557189941406	760.4711303710938	865.3395385742189	-594.8915405273435	835.8585815429688	807.6755371093751	-596.3585205078123	735.0501098632812	1069.885986328125	-122.1514663696287	609.1898803710938	1042.244873046875	-294.5668640136716	726.215087890625	1065.746215820312	-465.6910400390623	676.93115234375	934.6098022460938	-112.8185882568357	642.3603515625	664.6934814453125	-131.3040771484374	701.0068359375	666.306640625	-126.3974151611327	680.5460815429688	566.1506958007812	-161.3019256591796	619.2509765625	587.5220336914062	-152.6937408447264	541.1047973632812	364.4349670410157	-154.1374359130859	589.7245483398438	332.2246398925782	-170.7834472656249	565.7701416015625	251.8523254394532	-190.9333496093749	505.6429748535156	272.0304565429688	-179.3346405029296	416.8099060058594	82.08774566650396	-267.3310546875	568.6968383789062	19.79668426513676	-181.2097015380859	629.1995849609375	28.66396903991706	-280.8514099121094	707.4637451171875	949.2434692382814	-475.9536437988279	884.504150390625	695.1483154296876	-467.9559020996092	827.5282592773438	694.7683105468751	-485.7925415039061	848.6300048828125	594.0974731445314	-454.5185241699218	908.1276245117188	618.3903808593751	-444.8888244628905	930.9319458007812	346.931610107422	-448.2082214355468	878.6188354492188	315.8563537597657	-444.4870910644531	892.69482421875	231.152572631836	-429.0525207519531	954.5478515625	248.506317138672	-428.6374511718749	899.7359008789062	38.63950347900398	-354.3849792480469	1067.5458984375	47.91320419311533	-442.0361938476562	1109.01123046875	69.69303894042977	-354.4331665039062	
